<svg xmlns="http://www.w3.org/2000/svg" fill="#22a958" viewBox="0 0 80 42" role="img" aria-label="SnappBox">
  <g clip-path="url(#snappbox-logo_svg__a)">
    <path d="M11.486 2.672a2.55 2.55 0 0 1-2.952 1.276 4.1 4.1 0 0 0-1.196-.16c-.838 0-1.954.48-1.954 1.476 0 .997 1.236 1.396 2.034 1.675l1.156.36c2.433.717 4.307 1.953 4.307 4.785 0 1.755-.398 3.51-1.794 4.706a7.62 7.62 0 0 1-4.945 1.635A10.65 10.65 0 0 1 0 16.43v-.04l1.954-3.63c1.117.998 2.473 1.795 4.028 1.795 1.077 0 2.193-.518 2.193-1.754 0-1.237-1.794-1.715-2.751-1.994C2.552 10.01.678 9.252.678 5.862.678 2.313 3.19 0 6.7 0c1.91.032 3.784.524 5.464 1.436v.04zM17.947 7.537c.997-1.435 2.193-1.914 3.828-1.914 3.19 0 4.467 2.034 4.467 4.945v4.826a2.49 2.49 0 0 1-2.473 2.512h-1.714c-.04 0-.04 0-.04-.04v-5.782c0-1.157.2-3.15-1.915-3.15-1.714 0-2.193 1.275-2.193 2.751v3.669a2.49 2.49 0 0 1-2.473 2.512H13.72c-.04 0-.04 0-.04-.04V5.983c0-.04 0-.04.04-.04h4.147c.04 0 .04 0 .04.04zM38.365 17.906H36.69c-.04 0-.04 0-.04-.04V16.59c0-.04 0-.04-.04-.04h-.04c-.758 1.157-2.193 1.715-3.59 1.715-3.509 0-6.021-2.95-6.021-6.34s2.433-6.342 5.942-6.342a4.81 4.81 0 0 1 3.63 1.476c0 .04.04 0 .04 0V6.022c0-.04 0-.04.039-.04h4.148c.04 0 .04 0 .04.04v9.372a2.365 2.365 0 0 1-2.194 2.512zm-6.98-5.942a2.54 2.54 0 0 0 2.393 2.672h.32a2.544 2.544 0 0 0 2.711-2.353v-.319a2.57 2.57 0 0 0-2.432-2.672h-.28a2.584 2.584 0 0 0-2.711 2.433zM46.42 7.378c.04-.04 .04 0 0 0a4.3 4.3 0 0 1 3.629-1.755c3.55 0 6.022 2.951 6.022 6.381s-2.433 6.301-5.942 6.301a4.88 4.88 0 0 1-3.67-1.515v3.629a2.49 2.49 0 0 1-2.472 2.512h-1.755V6.022h4.228zm-.16 4.586a2.54 2.54 0 0 0 2.393 2.672h.32a2.544 2.544 0 0 0 2.711-2.353v-.319a2.573 2.573 0 0 0-2.433-2.672h-.279a2.584 2.584 0 0 0-2.712 2.433zM61.098 7.378a4.3 4.3 0 0 1 3.629-1.755c3.55 0 6.022 2.951 6.022 6.381s-2.433 6.301-5.942 6.301a4.97 4.97 0 0 1-3.63-1.476c0-.04-.04 0-.04 .04v3.55a2.493 2.493 0 0 1-2.472 2.512H56.95c-.04 0-.04 0-.04-.04V6.022c0-.04 0-.04 .04-.04h4.148c.04 0 .04 0 .04 .04zm-.16 4.586a2.54 2.54 0 0 0 2.393 2.672h.319a2.544 2.544 0 0 0 2.712-2.353v-.319a2.573 2.573 0 0 0-2.433-2.672h-.28a2.584 2.584 0 0 0-2.71 2.433zM75.135 11.645h-2.393L75.614 .44c0-.04 0-.04 .04-.04h4.307c.04 0 .04 0 .04 .04L77.607 9.73a2.56 2.56 0 0 1-2.473 1.914M71.467 15.633a2.54 2.54 0 0 0 2.392 2.672h.32a2.544 2.544 0 0 0 2.711-2.353v-.319a2.57 2.57 0 0 0-2.433-2.672h-.279a2.585 2.585 0 0 0-2.712 2.433zM.678 23.13h6.78c1.595 0 2.83 .4 3.668 1.157.838 .758 1.237 1.875 1.237 3.35a4.2 4.2 0 0 1-.479 2.194 3.9 3.9 0 0 1-1.436 1.475c.583 .101 1.148 .29 1.675 .558.44 .23 .823 .557 1.117 .957.278 .37 .481 .79 .598 1.237.125 .482 .192 .977 .2 1.475a5.8 5.8 0 0 1-.439 2.194 4.7 4.7 0 0 1-1.196 1.595 5.6 5.6 0 0 1-1.875 .957c-.822 .204-1.665 .311-2.512 .32H.718V23.13zm4.546 6.86h.838q2.153 0 2.153-1.675T6.062 26.64h-.838zm0 7.139h.997a5.34 5.34 0 0 0 2.473-.44 1.54 1.54 0 0 0 .757-1.395 1.49 1.49 0 0 0-.757-1.436c-.479-.279-1.316-.438-2.473-.438h-.997zm9.492-2.553a5.85 5.85 0 0 1 .518-2.472 6.05 6.05 0 0 1 1.476-1.994 7.2 7.2 0 0 1 2.273-1.316 8.73 8.73 0 0 1 5.703 0 7.2 7.2 0 0 1 2.273 1.316 5.9 5.9 0 0 1 1.515 2.034 6.5 6.5 0 0 1-.04 5.184 6.3 6.3 0 0 1-1.515 2.034 7.2 7.2 0 0 1-2.273 1.316 8.73 8.73 0 0 1-5.703 0 6.6 6.6 0 0 1-2.233-1.316 5.5 5.5 0 0 1-1.476-2.074 6.3 6.3 0 0 1-.518-2.712m4.426 .04c-.001 .385 .08 .766 .24 1.117q.244 .475 .598 .877 .392 .368 .877 .598a2.8 2.8 0 0 0 2.074 0 2.6 2.6 0 0 0 .877-.598c.244-.26 .446-.555 .599-.877 .159-.337 .24-.705 .239-1.077 .001-.36 -.08 -.714 -.24 -1.037a4.3 4.3 0 0 0 -.598 -.877 3.4 3.4 0 0 0 -.877 -.598 2.8 2.8 0 0 0 -2.074 0c-.33 .138 -.628 .341 -.877 .598 -.244 .26 -.446 .555 -.598 .877 -.159 .309 -.241 .65 -.24 .997m14.357-.438-4.825-5.464h5.463l2.034 2.472 2.074-2.472h5.464l-4.946 5.464 5.983 6.46h-5.584l-3.03-3.51-3.071 3.51h-5.544z"></path>
  </g>
  <defs>
    <clipPath id="snappbox-logo_svg__a"><path fill="#fff" d="M0 0h80v41.157H0z"></path></clipPath>
  </defs>
</svg>